<mxfile host="app.diagrams.net" modified="2023-09-09T15:52:00.097Z" agent="Mozilla/5.0 (Windows NT 10.0; Win64; x64) AppleWebKit/537.36 (KHTML, like Gecko) Chrome/116.0.0.0 Safari/537.36" etag="PzHwMIiIGh8n4X8vh1Tt" version="21.7.4" type="github">
  <diagram id="C5RBs43oDa-KdzZeNtuy" name="Page-1">
    <mxGraphModel dx="1193" dy="753" grid="1" gridSize="10" guides="1" tooltips="1" connect="1" arrows="1" fold="1" page="1" pageScale="1" pageWidth="827" pageHeight="1169" math="0" shadow="0">
      <root>
        <mxCell id="WIyWlLk6GJQsqaUBKTNV-0" />
        <mxCell id="WIyWlLk6GJQsqaUBKTNV-1" parent="WIyWlLk6GJQsqaUBKTNV-0" />
        <mxCell id="HKxjh_wqK_dI9qvHyycY-36" value="" style="edgeStyle=orthogonalEdgeStyle;rounded=0;orthogonalLoop=1;jettySize=auto;html=1;" parent="WIyWlLk6GJQsqaUBKTNV-1" source="HKxjh_wqK_dI9qvHyycY-33" target="HKxjh_wqK_dI9qvHyycY-37" edge="1">
          <mxGeometry relative="1" as="geometry">
            <mxPoint x="70" y="290" as="targetPoint" />
          </mxGeometry>
        </mxCell>
        <mxCell id="HKxjh_wqK_dI9qvHyycY-33" value="Input N, M, P" style="shape=parallelogram;perimeter=parallelogramPerimeter;whiteSpace=wrap;html=1;fixedSize=1;strokeWidth=2;" parent="WIyWlLk6GJQsqaUBKTNV-1" vertex="1">
          <mxGeometry x="10" y="150" width="120" height="60" as="geometry" />
        </mxCell>
        <mxCell id="HKxjh_wqK_dI9qvHyycY-39" value="" style="edgeStyle=orthogonalEdgeStyle;rounded=0;orthogonalLoop=1;jettySize=auto;html=1;" parent="WIyWlLk6GJQsqaUBKTNV-1" source="HKxjh_wqK_dI9qvHyycY-37" target="HKxjh_wqK_dI9qvHyycY-40" edge="1">
          <mxGeometry relative="1" as="geometry">
            <mxPoint x="70" y="430" as="targetPoint" />
          </mxGeometry>
        </mxCell>
        <mxCell id="HKxjh_wqK_dI9qvHyycY-37" value="Loop inputRowA&lt;br&gt;i &amp;lt; N" style="strokeWidth=2;html=1;shape=mxgraph.flowchart.loop_limit;whiteSpace=wrap;" parent="WIyWlLk6GJQsqaUBKTNV-1" vertex="1">
          <mxGeometry x="10" y="290" width="120" height="60" as="geometry" />
        </mxCell>
        <mxCell id="HKxjh_wqK_dI9qvHyycY-42" value="" style="edgeStyle=orthogonalEdgeStyle;rounded=0;orthogonalLoop=1;jettySize=auto;html=1;" parent="WIyWlLk6GJQsqaUBKTNV-1" source="HKxjh_wqK_dI9qvHyycY-40" target="HKxjh_wqK_dI9qvHyycY-41" edge="1">
          <mxGeometry relative="1" as="geometry" />
        </mxCell>
        <mxCell id="HKxjh_wqK_dI9qvHyycY-40" value="Loop inputColA&lt;br&gt;j &amp;lt; M" style="strokeWidth=2;html=1;shape=mxgraph.flowchart.loop_limit;whiteSpace=wrap;" parent="WIyWlLk6GJQsqaUBKTNV-1" vertex="1">
          <mxGeometry x="10" y="430" width="120" height="60" as="geometry" />
        </mxCell>
        <mxCell id="7tl5TSwnwn83FbGlhzgR-7" value="" style="edgeStyle=orthogonalEdgeStyle;rounded=0;orthogonalLoop=1;jettySize=auto;html=1;" parent="WIyWlLk6GJQsqaUBKTNV-1" source="HKxjh_wqK_dI9qvHyycY-41" target="7tl5TSwnwn83FbGlhzgR-6" edge="1">
          <mxGeometry relative="1" as="geometry" />
        </mxCell>
        <mxCell id="HKxjh_wqK_dI9qvHyycY-41" value="Input A[i][j]" style="shape=parallelogram;perimeter=parallelogramPerimeter;whiteSpace=wrap;html=1;fixedSize=1;strokeWidth=2;" parent="WIyWlLk6GJQsqaUBKTNV-1" vertex="1">
          <mxGeometry x="10" y="570" width="120" height="60" as="geometry" />
        </mxCell>
        <mxCell id="7tl5TSwnwn83FbGlhzgR-9" value="" style="edgeStyle=orthogonalEdgeStyle;rounded=0;orthogonalLoop=1;jettySize=auto;html=1;" parent="WIyWlLk6GJQsqaUBKTNV-1" source="7tl5TSwnwn83FbGlhzgR-6" target="7tl5TSwnwn83FbGlhzgR-10" edge="1">
          <mxGeometry relative="1" as="geometry">
            <mxPoint x="70" y="850" as="targetPoint" />
          </mxGeometry>
        </mxCell>
        <mxCell id="7tl5TSwnwn83FbGlhzgR-6" value="j = j + 1" style="whiteSpace=wrap;html=1;strokeWidth=2;" parent="WIyWlLk6GJQsqaUBKTNV-1" vertex="1">
          <mxGeometry x="10" y="710" width="120" height="60" as="geometry" />
        </mxCell>
        <mxCell id="BlL5_unkoP82LWrU3UgC-6" value="" style="edgeStyle=orthogonalEdgeStyle;rounded=0;orthogonalLoop=1;jettySize=auto;html=1;" edge="1" parent="WIyWlLk6GJQsqaUBKTNV-1" source="7tl5TSwnwn83FbGlhzgR-10" target="BlL5_unkoP82LWrU3UgC-13">
          <mxGeometry relative="1" as="geometry">
            <mxPoint x="70" y="989.9999999999998" as="targetPoint" />
          </mxGeometry>
        </mxCell>
        <mxCell id="7tl5TSwnwn83FbGlhzgR-10" value="Loop inputColA" style="strokeWidth=2;html=1;shape=mxgraph.flowchart.loop_limit;whiteSpace=wrap;direction=west;" parent="WIyWlLk6GJQsqaUBKTNV-1" vertex="1">
          <mxGeometry x="10" y="850" width="120" height="60" as="geometry" />
        </mxCell>
        <mxCell id="7tl5TSwnwn83FbGlhzgR-14" value="" style="edgeStyle=orthogonalEdgeStyle;rounded=0;orthogonalLoop=1;jettySize=auto;html=1;" parent="WIyWlLk6GJQsqaUBKTNV-1" source="7tl5TSwnwn83FbGlhzgR-11" target="7tl5TSwnwn83FbGlhzgR-15" edge="1">
          <mxGeometry relative="1" as="geometry">
            <mxPoint x="280" y="290" as="targetPoint" />
          </mxGeometry>
        </mxCell>
        <mxCell id="7tl5TSwnwn83FbGlhzgR-11" value="i = i + 1" style="whiteSpace=wrap;html=1;strokeWidth=2;" parent="WIyWlLk6GJQsqaUBKTNV-1" vertex="1">
          <mxGeometry x="220" y="150" width="120" height="60" as="geometry" />
        </mxCell>
        <mxCell id="7tl5TSwnwn83FbGlhzgR-29" value="" style="edgeStyle=orthogonalEdgeStyle;rounded=0;orthogonalLoop=1;jettySize=auto;html=1;" parent="WIyWlLk6GJQsqaUBKTNV-1" source="7tl5TSwnwn83FbGlhzgR-15" target="7tl5TSwnwn83FbGlhzgR-17" edge="1">
          <mxGeometry relative="1" as="geometry" />
        </mxCell>
        <mxCell id="7tl5TSwnwn83FbGlhzgR-15" value="Loop inputRowA" style="strokeWidth=2;html=1;shape=mxgraph.flowchart.loop_limit;whiteSpace=wrap;direction=west;" parent="WIyWlLk6GJQsqaUBKTNV-1" vertex="1">
          <mxGeometry x="220" y="290" width="120" height="60" as="geometry" />
        </mxCell>
        <mxCell id="7tl5TSwnwn83FbGlhzgR-16" value="" style="edgeStyle=orthogonalEdgeStyle;rounded=0;orthogonalLoop=1;jettySize=auto;html=1;" parent="WIyWlLk6GJQsqaUBKTNV-1" source="7tl5TSwnwn83FbGlhzgR-17" target="7tl5TSwnwn83FbGlhzgR-19" edge="1">
          <mxGeometry relative="1" as="geometry">
            <mxPoint x="280" y="570" as="targetPoint" />
          </mxGeometry>
        </mxCell>
        <mxCell id="7tl5TSwnwn83FbGlhzgR-17" value="Loop inputRowB&lt;br&gt;i &amp;lt; M" style="strokeWidth=2;html=1;shape=mxgraph.flowchart.loop_limit;whiteSpace=wrap;" parent="WIyWlLk6GJQsqaUBKTNV-1" vertex="1">
          <mxGeometry x="220" y="430" width="120" height="60" as="geometry" />
        </mxCell>
        <mxCell id="7tl5TSwnwn83FbGlhzgR-18" value="" style="edgeStyle=orthogonalEdgeStyle;rounded=0;orthogonalLoop=1;jettySize=auto;html=1;" parent="WIyWlLk6GJQsqaUBKTNV-1" source="7tl5TSwnwn83FbGlhzgR-19" target="7tl5TSwnwn83FbGlhzgR-21" edge="1">
          <mxGeometry relative="1" as="geometry" />
        </mxCell>
        <mxCell id="7tl5TSwnwn83FbGlhzgR-19" value="Loop inputColB&lt;br&gt;j &amp;lt; P" style="strokeWidth=2;html=1;shape=mxgraph.flowchart.loop_limit;whiteSpace=wrap;" parent="WIyWlLk6GJQsqaUBKTNV-1" vertex="1">
          <mxGeometry x="220" y="570" width="120" height="60" as="geometry" />
        </mxCell>
        <mxCell id="7tl5TSwnwn83FbGlhzgR-20" value="" style="edgeStyle=orthogonalEdgeStyle;rounded=0;orthogonalLoop=1;jettySize=auto;html=1;" parent="WIyWlLk6GJQsqaUBKTNV-1" source="7tl5TSwnwn83FbGlhzgR-21" target="7tl5TSwnwn83FbGlhzgR-23" edge="1">
          <mxGeometry relative="1" as="geometry" />
        </mxCell>
        <mxCell id="7tl5TSwnwn83FbGlhzgR-21" value="Input B[i][j]" style="shape=parallelogram;perimeter=parallelogramPerimeter;whiteSpace=wrap;html=1;fixedSize=1;strokeWidth=2;" parent="WIyWlLk6GJQsqaUBKTNV-1" vertex="1">
          <mxGeometry x="220" y="710" width="120" height="60" as="geometry" />
        </mxCell>
        <mxCell id="BlL5_unkoP82LWrU3UgC-19" value="" style="edgeStyle=orthogonalEdgeStyle;rounded=0;orthogonalLoop=1;jettySize=auto;html=1;" edge="1" parent="WIyWlLk6GJQsqaUBKTNV-1" source="7tl5TSwnwn83FbGlhzgR-23" target="BlL5_unkoP82LWrU3UgC-20">
          <mxGeometry relative="1" as="geometry">
            <mxPoint x="280" y="980" as="targetPoint" />
          </mxGeometry>
        </mxCell>
        <mxCell id="7tl5TSwnwn83FbGlhzgR-23" value="j = j + 1" style="whiteSpace=wrap;html=1;strokeWidth=2;" parent="WIyWlLk6GJQsqaUBKTNV-1" vertex="1">
          <mxGeometry x="220" y="850" width="120" height="60" as="geometry" />
        </mxCell>
        <mxCell id="7tl5TSwnwn83FbGlhzgR-24" value="" style="edgeStyle=orthogonalEdgeStyle;rounded=0;orthogonalLoop=1;jettySize=auto;html=1;" parent="WIyWlLk6GJQsqaUBKTNV-1" source="7tl5TSwnwn83FbGlhzgR-25" target="7tl5TSwnwn83FbGlhzgR-27" edge="1">
          <mxGeometry relative="1" as="geometry" />
        </mxCell>
        <mxCell id="7tl5TSwnwn83FbGlhzgR-25" value="Loop inputColB" style="strokeWidth=2;html=1;shape=mxgraph.flowchart.loop_limit;whiteSpace=wrap;direction=west;" parent="WIyWlLk6GJQsqaUBKTNV-1" vertex="1">
          <mxGeometry x="444" y="140" width="120" height="60" as="geometry" />
        </mxCell>
        <mxCell id="7tl5TSwnwn83FbGlhzgR-26" value="" style="edgeStyle=orthogonalEdgeStyle;rounded=0;orthogonalLoop=1;jettySize=auto;html=1;" parent="WIyWlLk6GJQsqaUBKTNV-1" source="7tl5TSwnwn83FbGlhzgR-27" target="7tl5TSwnwn83FbGlhzgR-28" edge="1">
          <mxGeometry relative="1" as="geometry">
            <mxPoint x="504" y="420" as="targetPoint" />
          </mxGeometry>
        </mxCell>
        <mxCell id="7tl5TSwnwn83FbGlhzgR-27" value="i = i + 1" style="whiteSpace=wrap;html=1;strokeWidth=2;" parent="WIyWlLk6GJQsqaUBKTNV-1" vertex="1">
          <mxGeometry x="444" y="280" width="120" height="60" as="geometry" />
        </mxCell>
        <mxCell id="7tl5TSwnwn83FbGlhzgR-31" value="" style="edgeStyle=orthogonalEdgeStyle;rounded=0;orthogonalLoop=1;jettySize=auto;html=1;" parent="WIyWlLk6GJQsqaUBKTNV-1" source="7tl5TSwnwn83FbGlhzgR-28" target="7tl5TSwnwn83FbGlhzgR-30" edge="1">
          <mxGeometry relative="1" as="geometry" />
        </mxCell>
        <mxCell id="7tl5TSwnwn83FbGlhzgR-28" value="Loop inputRowB" style="strokeWidth=2;html=1;shape=mxgraph.flowchart.loop_limit;whiteSpace=wrap;direction=west;" parent="WIyWlLk6GJQsqaUBKTNV-1" vertex="1">
          <mxGeometry x="444" y="420" width="120" height="60" as="geometry" />
        </mxCell>
        <mxCell id="7tl5TSwnwn83FbGlhzgR-33" value="" style="edgeStyle=orthogonalEdgeStyle;rounded=0;orthogonalLoop=1;jettySize=auto;html=1;" parent="WIyWlLk6GJQsqaUBKTNV-1" source="7tl5TSwnwn83FbGlhzgR-30" target="7tl5TSwnwn83FbGlhzgR-32" edge="1">
          <mxGeometry relative="1" as="geometry" />
        </mxCell>
        <mxCell id="7tl5TSwnwn83FbGlhzgR-30" value="Loop rowC&lt;br&gt;i &amp;lt; N" style="strokeWidth=2;html=1;shape=mxgraph.flowchart.loop_limit;whiteSpace=wrap;direction=east;" parent="WIyWlLk6GJQsqaUBKTNV-1" vertex="1">
          <mxGeometry x="454" y="560" width="100" height="60" as="geometry" />
        </mxCell>
        <mxCell id="7tl5TSwnwn83FbGlhzgR-35" value="" style="edgeStyle=orthogonalEdgeStyle;rounded=0;orthogonalLoop=1;jettySize=auto;html=1;" parent="WIyWlLk6GJQsqaUBKTNV-1" source="7tl5TSwnwn83FbGlhzgR-32" target="7tl5TSwnwn83FbGlhzgR-34" edge="1">
          <mxGeometry relative="1" as="geometry" />
        </mxCell>
        <mxCell id="7tl5TSwnwn83FbGlhzgR-32" value="Loop colC&lt;br&gt;j &amp;lt; P" style="strokeWidth=2;html=1;shape=mxgraph.flowchart.loop_limit;whiteSpace=wrap;direction=east;" parent="WIyWlLk6GJQsqaUBKTNV-1" vertex="1">
          <mxGeometry x="454" y="700" width="100" height="60" as="geometry" />
        </mxCell>
        <mxCell id="BlL5_unkoP82LWrU3UgC-26" value="" style="edgeStyle=orthogonalEdgeStyle;rounded=0;orthogonalLoop=1;jettySize=auto;html=1;" edge="1" parent="WIyWlLk6GJQsqaUBKTNV-1" source="7tl5TSwnwn83FbGlhzgR-34" target="BlL5_unkoP82LWrU3UgC-27">
          <mxGeometry relative="1" as="geometry">
            <mxPoint x="504" y="970" as="targetPoint" />
          </mxGeometry>
        </mxCell>
        <mxCell id="7tl5TSwnwn83FbGlhzgR-34" value="C[i][j] = 0" style="whiteSpace=wrap;html=1;strokeWidth=2;" parent="WIyWlLk6GJQsqaUBKTNV-1" vertex="1">
          <mxGeometry x="444" y="840" width="120" height="60" as="geometry" />
        </mxCell>
        <mxCell id="7tl5TSwnwn83FbGlhzgR-42" value="" style="edgeStyle=orthogonalEdgeStyle;rounded=0;orthogonalLoop=1;jettySize=auto;html=1;" parent="WIyWlLk6GJQsqaUBKTNV-1" source="7tl5TSwnwn83FbGlhzgR-40" target="7tl5TSwnwn83FbGlhzgR-41" edge="1">
          <mxGeometry relative="1" as="geometry" />
        </mxCell>
        <mxCell id="7tl5TSwnwn83FbGlhzgR-40" value="Loop multiply&lt;br&gt;k &amp;lt; M" style="strokeWidth=2;html=1;shape=mxgraph.flowchart.loop_limit;whiteSpace=wrap;" parent="WIyWlLk6GJQsqaUBKTNV-1" vertex="1">
          <mxGeometry x="680" y="150" width="100" height="60" as="geometry" />
        </mxCell>
        <mxCell id="7tl5TSwnwn83FbGlhzgR-44" value="" style="edgeStyle=orthogonalEdgeStyle;rounded=0;orthogonalLoop=1;jettySize=auto;html=1;" parent="WIyWlLk6GJQsqaUBKTNV-1" source="7tl5TSwnwn83FbGlhzgR-41" edge="1">
          <mxGeometry relative="1" as="geometry">
            <mxPoint x="730" y="430.00000000000045" as="targetPoint" />
          </mxGeometry>
        </mxCell>
        <mxCell id="7tl5TSwnwn83FbGlhzgR-41" value="C[i][j] = C[i][j] + A[i][k] * B[k][j]" style="whiteSpace=wrap;html=1;strokeWidth=2;" parent="WIyWlLk6GJQsqaUBKTNV-1" vertex="1">
          <mxGeometry x="640" y="290" width="180" height="60" as="geometry" />
        </mxCell>
        <mxCell id="7tl5TSwnwn83FbGlhzgR-62" value="" style="edgeStyle=orthogonalEdgeStyle;rounded=0;orthogonalLoop=1;jettySize=auto;html=1;" parent="WIyWlLk6GJQsqaUBKTNV-1" source="7tl5TSwnwn83FbGlhzgR-60" target="HKxjh_wqK_dI9qvHyycY-33" edge="1">
          <mxGeometry relative="1" as="geometry" />
        </mxCell>
        <mxCell id="7tl5TSwnwn83FbGlhzgR-60" value="Start" style="strokeWidth=2;html=1;shape=mxgraph.flowchart.terminator;whiteSpace=wrap;" parent="WIyWlLk6GJQsqaUBKTNV-1" vertex="1">
          <mxGeometry x="20" y="10" width="100" height="60" as="geometry" />
        </mxCell>
        <mxCell id="BlL5_unkoP82LWrU3UgC-13" value="ref1" style="ellipse;whiteSpace=wrap;html=1;aspect=fixed;" vertex="1" parent="WIyWlLk6GJQsqaUBKTNV-1">
          <mxGeometry x="40" y="990" width="60" height="60" as="geometry" />
        </mxCell>
        <mxCell id="BlL5_unkoP82LWrU3UgC-17" value="" style="edgeStyle=orthogonalEdgeStyle;rounded=0;orthogonalLoop=1;jettySize=auto;html=1;" edge="1" parent="WIyWlLk6GJQsqaUBKTNV-1" source="BlL5_unkoP82LWrU3UgC-16" target="7tl5TSwnwn83FbGlhzgR-11">
          <mxGeometry relative="1" as="geometry" />
        </mxCell>
        <mxCell id="BlL5_unkoP82LWrU3UgC-16" value="ref1" style="ellipse;whiteSpace=wrap;html=1;aspect=fixed;" vertex="1" parent="WIyWlLk6GJQsqaUBKTNV-1">
          <mxGeometry x="250" y="10" width="60" height="60" as="geometry" />
        </mxCell>
        <mxCell id="BlL5_unkoP82LWrU3UgC-20" value="ref2" style="ellipse;whiteSpace=wrap;html=1;aspect=fixed;" vertex="1" parent="WIyWlLk6GJQsqaUBKTNV-1">
          <mxGeometry x="250" y="990" width="60" height="60" as="geometry" />
        </mxCell>
        <mxCell id="BlL5_unkoP82LWrU3UgC-24" value="" style="edgeStyle=orthogonalEdgeStyle;rounded=0;orthogonalLoop=1;jettySize=auto;html=1;" edge="1" parent="WIyWlLk6GJQsqaUBKTNV-1" source="BlL5_unkoP82LWrU3UgC-23" target="7tl5TSwnwn83FbGlhzgR-25">
          <mxGeometry relative="1" as="geometry" />
        </mxCell>
        <mxCell id="BlL5_unkoP82LWrU3UgC-23" value="ref2" style="ellipse;whiteSpace=wrap;html=1;aspect=fixed;" vertex="1" parent="WIyWlLk6GJQsqaUBKTNV-1">
          <mxGeometry x="474" y="10" width="60" height="60" as="geometry" />
        </mxCell>
        <mxCell id="BlL5_unkoP82LWrU3UgC-27" value="ref3" style="ellipse;whiteSpace=wrap;html=1;aspect=fixed;" vertex="1" parent="WIyWlLk6GJQsqaUBKTNV-1">
          <mxGeometry x="474" y="980" width="60" height="60" as="geometry" />
        </mxCell>
        <mxCell id="BlL5_unkoP82LWrU3UgC-31" value="" style="edgeStyle=orthogonalEdgeStyle;rounded=0;orthogonalLoop=1;jettySize=auto;html=1;" edge="1" parent="WIyWlLk6GJQsqaUBKTNV-1" source="BlL5_unkoP82LWrU3UgC-30" target="7tl5TSwnwn83FbGlhzgR-40">
          <mxGeometry relative="1" as="geometry" />
        </mxCell>
        <mxCell id="BlL5_unkoP82LWrU3UgC-30" value="ref3" style="ellipse;whiteSpace=wrap;html=1;aspect=fixed;" vertex="1" parent="WIyWlLk6GJQsqaUBKTNV-1">
          <mxGeometry x="700" y="10" width="60" height="60" as="geometry" />
        </mxCell>
        <mxCell id="BlL5_unkoP82LWrU3UgC-49" value="" style="edgeStyle=orthogonalEdgeStyle;rounded=0;orthogonalLoop=1;jettySize=auto;html=1;" edge="1" parent="WIyWlLk6GJQsqaUBKTNV-1" source="BlL5_unkoP82LWrU3UgC-50" target="BlL5_unkoP82LWrU3UgC-57">
          <mxGeometry relative="1" as="geometry" />
        </mxCell>
        <mxCell id="BlL5_unkoP82LWrU3UgC-50" value="Loop multiply" style="strokeWidth=2;html=1;shape=mxgraph.flowchart.loop_limit;whiteSpace=wrap;direction=west;" vertex="1" parent="WIyWlLk6GJQsqaUBKTNV-1">
          <mxGeometry x="680" y="570.0000000000005" width="100" height="60" as="geometry" />
        </mxCell>
        <mxCell id="BlL5_unkoP82LWrU3UgC-51" value="" style="edgeStyle=orthogonalEdgeStyle;rounded=0;orthogonalLoop=1;jettySize=auto;html=1;" edge="1" parent="WIyWlLk6GJQsqaUBKTNV-1" source="BlL5_unkoP82LWrU3UgC-52" target="BlL5_unkoP82LWrU3UgC-63">
          <mxGeometry relative="1" as="geometry" />
        </mxCell>
        <mxCell id="BlL5_unkoP82LWrU3UgC-52" value="Loop colC" style="strokeWidth=2;html=1;shape=mxgraph.flowchart.loop_limit;whiteSpace=wrap;direction=west;" vertex="1" parent="WIyWlLk6GJQsqaUBKTNV-1">
          <mxGeometry x="20" y="1320.0000000000005" width="100" height="60" as="geometry" />
        </mxCell>
        <mxCell id="BlL5_unkoP82LWrU3UgC-53" value="" style="edgeStyle=orthogonalEdgeStyle;rounded=0;orthogonalLoop=1;jettySize=auto;html=1;" edge="1" parent="WIyWlLk6GJQsqaUBKTNV-1" source="BlL5_unkoP82LWrU3UgC-54" target="BlL5_unkoP82LWrU3UgC-55">
          <mxGeometry relative="1" as="geometry">
            <mxPoint x="70" y="1850" as="targetPoint" />
          </mxGeometry>
        </mxCell>
        <mxCell id="BlL5_unkoP82LWrU3UgC-54" value="Loop rowC" style="strokeWidth=2;html=1;shape=mxgraph.flowchart.loop_limit;whiteSpace=wrap;direction=west;" vertex="1" parent="WIyWlLk6GJQsqaUBKTNV-1">
          <mxGeometry x="20" y="1740" width="100" height="60" as="geometry" />
        </mxCell>
        <mxCell id="BlL5_unkoP82LWrU3UgC-55" value="Stop" style="strokeWidth=2;html=1;shape=mxgraph.flowchart.terminator;whiteSpace=wrap;" vertex="1" parent="WIyWlLk6GJQsqaUBKTNV-1">
          <mxGeometry x="20" y="1880" width="100" height="60" as="geometry" />
        </mxCell>
        <mxCell id="BlL5_unkoP82LWrU3UgC-56" value="" style="edgeStyle=orthogonalEdgeStyle;rounded=0;orthogonalLoop=1;jettySize=auto;html=1;" edge="1" parent="WIyWlLk6GJQsqaUBKTNV-1" source="BlL5_unkoP82LWrU3UgC-57">
          <mxGeometry relative="1" as="geometry">
            <mxPoint x="730" y="850" as="targetPoint" />
          </mxGeometry>
        </mxCell>
        <mxCell id="BlL5_unkoP82LWrU3UgC-57" value="Output C[i][j], &quot; &quot;" style="shape=parallelogram;html=1;strokeWidth=2;perimeter=parallelogramPerimeter;whiteSpace=wrap;rounded=1;arcSize=12;size=0.23;" vertex="1" parent="WIyWlLk6GJQsqaUBKTNV-1">
          <mxGeometry x="655" y="710" width="150" height="60" as="geometry" />
        </mxCell>
        <mxCell id="BlL5_unkoP82LWrU3UgC-58" value="" style="edgeStyle=orthogonalEdgeStyle;rounded=0;orthogonalLoop=1;jettySize=auto;html=1;" edge="1" parent="WIyWlLk6GJQsqaUBKTNV-1" source="BlL5_unkoP82LWrU3UgC-59" target="BlL5_unkoP82LWrU3UgC-50">
          <mxGeometry relative="1" as="geometry" />
        </mxCell>
        <mxCell id="BlL5_unkoP82LWrU3UgC-59" value="k = k + 1" style="whiteSpace=wrap;html=1;strokeWidth=2;" vertex="1" parent="WIyWlLk6GJQsqaUBKTNV-1">
          <mxGeometry x="670" y="430" width="120" height="60" as="geometry" />
        </mxCell>
        <mxCell id="BlL5_unkoP82LWrU3UgC-72" value="" style="edgeStyle=orthogonalEdgeStyle;rounded=0;orthogonalLoop=1;jettySize=auto;html=1;" edge="1" parent="WIyWlLk6GJQsqaUBKTNV-1" source="BlL5_unkoP82LWrU3UgC-61" target="BlL5_unkoP82LWrU3UgC-71">
          <mxGeometry relative="1" as="geometry" />
        </mxCell>
        <mxCell id="BlL5_unkoP82LWrU3UgC-61" value="j = j + 1" style="whiteSpace=wrap;html=1;strokeWidth=2;" vertex="1" parent="WIyWlLk6GJQsqaUBKTNV-1">
          <mxGeometry x="670" y="850" width="120" height="60" as="geometry" />
        </mxCell>
        <mxCell id="BlL5_unkoP82LWrU3UgC-62" value="" style="edgeStyle=orthogonalEdgeStyle;rounded=0;orthogonalLoop=1;jettySize=auto;html=1;" edge="1" parent="WIyWlLk6GJQsqaUBKTNV-1" source="BlL5_unkoP82LWrU3UgC-63" target="BlL5_unkoP82LWrU3UgC-65">
          <mxGeometry relative="1" as="geometry" />
        </mxCell>
        <mxCell id="BlL5_unkoP82LWrU3UgC-63" value="Output \n" style="shape=parallelogram;perimeter=parallelogramPerimeter;whiteSpace=wrap;html=1;fixedSize=1;strokeWidth=2;" vertex="1" parent="WIyWlLk6GJQsqaUBKTNV-1">
          <mxGeometry x="10" y="1460.0000000000005" width="120" height="60" as="geometry" />
        </mxCell>
        <mxCell id="BlL5_unkoP82LWrU3UgC-64" value="" style="edgeStyle=orthogonalEdgeStyle;rounded=0;orthogonalLoop=1;jettySize=auto;html=1;" edge="1" parent="WIyWlLk6GJQsqaUBKTNV-1" source="BlL5_unkoP82LWrU3UgC-65" target="BlL5_unkoP82LWrU3UgC-54">
          <mxGeometry relative="1" as="geometry" />
        </mxCell>
        <mxCell id="BlL5_unkoP82LWrU3UgC-65" value="i = i + 1" style="whiteSpace=wrap;html=1;strokeWidth=2;" vertex="1" parent="WIyWlLk6GJQsqaUBKTNV-1">
          <mxGeometry x="10" y="1600.0000000000005" width="120" height="60" as="geometry" />
        </mxCell>
        <mxCell id="BlL5_unkoP82LWrU3UgC-70" value="" style="edgeStyle=orthogonalEdgeStyle;rounded=0;orthogonalLoop=1;jettySize=auto;html=1;" edge="1" parent="WIyWlLk6GJQsqaUBKTNV-1" source="BlL5_unkoP82LWrU3UgC-66" target="BlL5_unkoP82LWrU3UgC-52">
          <mxGeometry relative="1" as="geometry" />
        </mxCell>
        <mxCell id="BlL5_unkoP82LWrU3UgC-66" value="1" style="html=1;shape=offPageConnector;rounded=0;size=0.5;" vertex="1" parent="WIyWlLk6GJQsqaUBKTNV-1">
          <mxGeometry x="40" y="1180" width="60" height="60" as="geometry" />
        </mxCell>
        <mxCell id="BlL5_unkoP82LWrU3UgC-71" value="2" style="html=1;shape=offPageConnector;rounded=0;size=0.5;" vertex="1" parent="WIyWlLk6GJQsqaUBKTNV-1">
          <mxGeometry x="700" y="990" width="60" height="60" as="geometry" />
        </mxCell>
        <mxCell id="BlL5_unkoP82LWrU3UgC-73" value="FLOWCHART PAGE 1" style="text;strokeColor=none;align=center;fillColor=none;html=1;verticalAlign=middle;whiteSpace=wrap;rounded=0;" vertex="1" parent="WIyWlLk6GJQsqaUBKTNV-1">
          <mxGeometry x="690" y="1130" width="130" height="30" as="geometry" />
        </mxCell>
        <mxCell id="BlL5_unkoP82LWrU3UgC-74" value="FLOWCHART PAGE 2" style="text;strokeColor=none;align=center;fillColor=none;html=1;verticalAlign=middle;whiteSpace=wrap;rounded=0;" vertex="1" parent="WIyWlLk6GJQsqaUBKTNV-1">
          <mxGeometry x="690" y="2300" width="130" height="30" as="geometry" />
        </mxCell>
      </root>
    </mxGraphModel>
  </diagram>
</mxfile>
